HIERARCHY
ROOT mixamorig:Hips
{
	OFFSET -0.000008 104.274872 1.554316
	CHANNELS 6 Xposition Yposition Zposition Xrotation Yrotation Zrotation
	JOINT mixamorig:Spine
	{
		OFFSET -0.000005 10.181595 0.131519
		CHANNELS 6 Xposition Yposition Zposition Xrotation Yrotation Zrotation
		JOINT mixamorig:Spine1
		{
			OFFSET -0.000000 9.893959 -1.470707
			CHANNELS 6 Xposition Yposition Zposition Xrotation Yrotation Zrotation
			JOINT mixamorig:Spine2
			{
				OFFSET -0.000000 9.220757 -1.370641
				CHANNELS 6 Xposition Yposition Zposition Xrotation Yrotation Zrotation
				JOINT mixamorig:Neck
				{
					OFFSET 0.000001 16.740417 -2.049036
					CHANNELS 6 Xposition Yposition Zposition Xrotation Yrotation Zrotation
					JOINT mixamorig:Head
					{
						OFFSET 0.000000 9.617874 1.685006
						CHANNELS 6 Xposition Yposition Zposition Xrotation Yrotation Zrotation
						JOINT mixamorig:HeadTop_End
						{
							OFFSET 0.000002 22.037354 7.501101
							CHANNELS 6 Xposition Yposition Zposition Xrotation Yrotation Zrotation
							End Site
							{
								OFFSET 0.000168 2310.654297 -282.823242
							}
						}
					}
				}
				JOINT mixamorig:RightShoulder
				{
					OFFSET -4.569970 11.014908 -2.160885
					CHANNELS 6 Xposition Yposition Zposition Xrotation Yrotation Zrotation
					JOINT mixamorig:RightArm
					{
						OFFSET -10.592851 -0.524811 -2.232101
						CHANNELS 6 Xposition Yposition Zposition Xrotation Yrotation Zrotation
						JOINT mixamorig:RightForeArm
						{
							OFFSET -27.841511 0.000031 -0.000004
							CHANNELS 6 Xposition Yposition Zposition Xrotation Yrotation Zrotation
							JOINT mixamorig:RightHand
							{
								OFFSET -28.328831 -0.000015 0.000015
								CHANNELS 6 Xposition Yposition Zposition Xrotation Yrotation Zrotation
								JOINT mixamorig:RightHandThumb1
								{
									OFFSET -2.464806 -1.573990 2.681852
									CHANNELS 6 Xposition Yposition Zposition Xrotation Yrotation Zrotation
									JOINT mixamorig:RightHandThumb2
									{
										OFFSET -3.215179 -1.872803 1.924282
										CHANNELS 6 Xposition Yposition Zposition Xrotation Yrotation Zrotation
										JOINT mixamorig:RightHandThumb3
										{
											OFFSET -2.654831 -1.527969 1.512609
											CHANNELS 6 Xposition Yposition Zposition Xrotation Yrotation Zrotation
											JOINT mixamorig:RightHandThumb4
											{
												OFFSET -2.018814 -1.152008 1.108052
												CHANNELS 6 Xposition Yposition Zposition Xrotation Yrotation Zrotation
												End Site
												{
													OFFSET -188.809540 -114.533607 132.431396
												}
											}
										}
									}
								}
								JOINT mixamorig:RightHandIndex1
								{
									OFFSET -9.108284 -0.517868 2.259835
									CHANNELS 6 Xposition Yposition Zposition Xrotation Yrotation Zrotation
									JOINT mixamorig:RightHandIndex2
									{
										OFFSET -3.699989 0.000000 0.001215
										CHANNELS 6 Xposition Yposition Zposition Xrotation Yrotation Zrotation
										JOINT mixamorig:RightHandIndex3
										{
											OFFSET -2.850006 0.000031 -0.000522
											CHANNELS 6 Xposition Yposition Zposition Xrotation Yrotation Zrotation
											JOINT mixamorig:RightHandIndex4
											{
												OFFSET -2.772186 -0.000015 -0.000020
												CHANNELS 6 Xposition Yposition Zposition Xrotation Yrotation Zrotation
												End Site
												{
													OFFSET -277.218445 0.000000 -0.050231
												}
											}
										}
									}
								}
								JOINT mixamorig:RightHandMiddle1
								{
									OFFSET -9.532516 -0.000031 -0.000023
									CHANNELS 6 Xposition Yposition Zposition Xrotation Yrotation Zrotation
									JOINT mixamorig:RightHandMiddle2
									{
										OFFSET -3.700005 -0.000015 0.003713
										CHANNELS 6 Xposition Yposition Zposition Xrotation Yrotation Zrotation
										JOINT mixamorig:RightHandMiddle3
										{
											OFFSET -2.949974 0.000015 -0.002054
											CHANNELS 6 Xposition Yposition Zposition Xrotation Yrotation Zrotation
											JOINT mixamorig:RightHandMiddle4
											{
												OFFSET -2.946640 0.000000 -0.000156
												CHANNELS 6 Xposition Yposition Zposition Xrotation Yrotation Zrotation
												End Site
												{
													OFFSET -294.664337 0.000000 -0.113670
												}
											}
										}
									}
								}
								JOINT mixamorig:RightHandRing1
								{
									OFFSET -9.103600 -0.043076 -1.865134
									CHANNELS 6 Xposition Yposition Zposition Xrotation Yrotation Zrotation
									JOINT mixamorig:RightHandRing2
									{
										OFFSET -3.379288 0.000000 -0.001055
										CHANNELS 6 Xposition Yposition Zposition Xrotation Yrotation Zrotation
										JOINT mixamorig:RightHandRing3
										{
											OFFSET -2.889687 -0.000015 0.000379
											CHANNELS 6 Xposition Yposition Zposition Xrotation Yrotation Zrotation
											JOINT mixamorig:RightHandRing4
											{
												OFFSET -2.638809 -0.000015 0.000941
												CHANNELS 6 Xposition Yposition Zposition Xrotation Yrotation Zrotation
												End Site
												{
													OFFSET -263.880371 0.000000 0.516020
												}
											}
										}
									}
								}
								JOINT mixamorig:RightHandPinky1
								{
									OFFSET -8.076683 -0.486710 -3.806280
									CHANNELS 6 Xposition Yposition Zposition Xrotation Yrotation Zrotation
									JOINT mixamorig:RightHandPinky2
									{
										OFFSET -3.600014 -0.000015 -0.003747
										CHANNELS 6 Xposition Yposition Zposition Xrotation Yrotation Zrotation
										JOINT mixamorig:RightHandPinky3
										{
											OFFSET -2.099983 0.000000 -0.005739
											CHANNELS 6 Xposition Yposition Zposition Xrotation Yrotation Zrotation
											JOINT mixamorig:RightHandPinky4
											{
												OFFSET -2.115768 -0.000031 -0.003680
												CHANNELS 6 Xposition Yposition Zposition Xrotation Yrotation Zrotation
												End Site
												{
													OFFSET -211.577087 0.000000 -0.350686
												}
											}
										}
									}
								}
							}
						}
					}
				}
				JOINT mixamorig:LeftShoulder
				{
					OFFSET 4.570447 11.014725 -2.160855
					CHANNELS 6 Xposition Yposition Zposition Xrotation Yrotation Zrotation
					JOINT mixamorig:LeftArm
					{
						OFFSET 10.592371 -0.524597 -2.232119
						CHANNELS 6 Xposition Yposition Zposition Xrotation Yrotation Zrotation
						JOINT mixamorig:LeftForeArm
						{
							OFFSET 27.841532 -0.000031 0.000026
							CHANNELS 6 Xposition Yposition Zposition Xrotation Yrotation Zrotation
							JOINT mixamorig:LeftHand
							{
								OFFSET 28.328846 -0.000061 0.000022
								CHANNELS 6 Xposition Yposition Zposition Xrotation Yrotation Zrotation
								JOINT mixamorig:LeftHandThumb1
								{
									OFFSET 2.466141 -1.576172 2.681732
									CHANNELS 6 Xposition Yposition Zposition Xrotation Yrotation Zrotation
									JOINT mixamorig:LeftHandThumb2
									{
										OFFSET 3.217812 -1.872070 1.916482
										CHANNELS 6 Xposition Yposition Zposition Xrotation Yrotation Zrotation
										JOINT mixamorig:LeftHandThumb3
										{
											OFFSET 2.656029 -1.528778 1.514513
											CHANNELS 6 Xposition Yposition Zposition Xrotation Yrotation Zrotation
											JOINT mixamorig:LeftHandThumb4
											{
												OFFSET 2.020889 -1.154053 1.115139
												CHANNELS 6 Xposition Yposition Zposition Xrotation Yrotation Zrotation
												End Site
												{
													OFFSET 190.885437 -115.081749 130.048782
												}
											}
										}
									}
								}
								JOINT mixamorig:LeftHandIndex1
								{
									OFFSET 9.109314 -0.518021 2.259871
									CHANNELS 6 Xposition Yposition Zposition Xrotation Yrotation Zrotation
									JOINT mixamorig:LeftHandIndex2
									{
										OFFSET 3.699989 0.000000 -0.000322
										CHANNELS 6 Xposition Yposition Zposition Xrotation Yrotation Zrotation
										JOINT mixamorig:LeftHandIndex3
										{
											OFFSET 2.850006 0.000000 0.000352
											CHANNELS 6 Xposition Yposition Zposition Xrotation Yrotation Zrotation
											JOINT mixamorig:LeftHandIndex4
											{
												OFFSET 2.774864 -0.000031 -0.000027
												CHANNELS 6 Xposition Yposition Zposition Xrotation Yrotation Zrotation
												End Site
												{
													OFFSET 277.486267 0.000000 -0.009857
												}
											}
										}
									}
								}
								JOINT mixamorig:LeftHandMiddle1
								{
									OFFSET 9.533394 0.000061 0.000044
									CHANNELS 6 Xposition Yposition Zposition Xrotation Yrotation Zrotation
									JOINT mixamorig:LeftHandMiddle2
									{
										OFFSET 3.699989 -0.000015 -0.000231
										CHANNELS 6 Xposition Yposition Zposition Xrotation Yrotation Zrotation
										JOINT mixamorig:LeftHandMiddle3
										{
											OFFSET 2.949997 -0.000015 -0.000059
											CHANNELS 6 Xposition Yposition Zposition Xrotation Yrotation Zrotation
											JOINT mixamorig:LeftHandMiddle4
											{
												OFFSET 2.952896 0.000031 0.000063
												CHANNELS 6 Xposition Yposition Zposition Xrotation Yrotation Zrotation
												End Site
												{
													OFFSET 295.289337 0.000000 0.022810
												}
											}
										}
									}
								}
								JOINT mixamorig:LeftHandRing1
								{
									OFFSET 9.104523 -0.042999 -1.865074
									CHANNELS 6 Xposition Yposition Zposition Xrotation Yrotation Zrotation
									JOINT mixamorig:LeftHandRing2
									{
										OFFSET 3.150009 -0.000031 0.000043
										CHANNELS 6 Xposition Yposition Zposition Xrotation Yrotation Zrotation
										JOINT mixamorig:LeftHandRing3
										{
											OFFSET 2.949982 -0.000015 0.000040
											CHANNELS 6 Xposition Yposition Zposition Xrotation Yrotation Zrotation
											JOINT mixamorig:LeftHandRing4
											{
												OFFSET 2.644348 0.000000 0.000057
												CHANNELS 6 Xposition Yposition Zposition Xrotation Yrotation Zrotation
												End Site
												{
													OFFSET 264.434631 0.000000 0.012105
												}
											}
										}
									}
								}
								JOINT mixamorig:LeftHandPinky1
								{
									OFFSET 8.077789 -0.486847 -3.806259
									CHANNELS 6 Xposition Yposition Zposition Xrotation Yrotation Zrotation
									JOINT mixamorig:LeftHandPinky2
									{
										OFFSET 3.599953 0.000031 0.014727
										CHANNELS 6 Xposition Yposition Zposition Xrotation Yrotation Zrotation
										JOINT mixamorig:LeftHandPinky3
										{
											OFFSET 2.100021 0.000015 0.007705
											CHANNELS 6 Xposition Yposition Zposition Xrotation Yrotation Zrotation
											JOINT mixamorig:LeftHandPinky4
											{
												OFFSET 2.125504 0.000031 0.007517
												CHANNELS 6 Xposition Yposition Zposition Xrotation Yrotation Zrotation
												End Site
												{
													OFFSET 212.550781 0.000000 0.625752
												}
											}
										}
									}
								}
							}
						}
					}
				}
			}
		}
	}
	JOINT mixamorig:RightUpLeg
	{
		OFFSET -8.207787 -6.751648 -1.599560
		CHANNELS 6 Xposition Yposition Zposition Xrotation Yrotation Zrotation
		JOINT mixamorig:RightLeg
		{
			OFFSET -0.000002 -44.370117 0.345942
			CHANNELS 6 Xposition Yposition Zposition Xrotation Yrotation Zrotation
			JOINT mixamorig:RightFoot
			{
				OFFSET 0.000003 -44.423679 -3.043532
				CHANNELS 6 Xposition Yposition Zposition Xrotation Yrotation Zrotation
				JOINT mixamorig:RightToeBase
				{
					OFFSET -0.000002 -8.728671 10.710558
					CHANNELS 6 Xposition Yposition Zposition Xrotation Yrotation Zrotation
					JOINT mixamorig:RightToe_End
					{
						OFFSET -0.000001 -0.000679 9.278119
						CHANNELS 6 Xposition Yposition Zposition Xrotation Yrotation Zrotation
						End Site
						{
							OFFSET 0.000000 -0.067690 927.812134
						}
					}
				}
			}
		}
	}
	JOINT mixamorig:LeftUpLeg
	{
		OFFSET 8.207793 -6.751686 -1.599556
		CHANNELS 6 Xposition Yposition Zposition Xrotation Yrotation Zrotation
		JOINT mixamorig:LeftLeg
		{
			OFFSET -0.000004 -44.370014 0.346954
			CHANNELS 6 Xposition Yposition Zposition Xrotation Yrotation Zrotation
			JOINT mixamorig:LeftFoot
			{
				OFFSET -0.000001 -44.423672 -3.044401
				CHANNELS 6 Xposition Yposition Zposition Xrotation Yrotation Zrotation
				JOINT mixamorig:LeftToeBase
				{
					OFFSET -0.000002 -8.728669 10.710558
					CHANNELS 6 Xposition Yposition Zposition Xrotation Yrotation Zrotation
					JOINT mixamorig:LeftToe_End
					{
						OFFSET -0.000003 -0.000679 9.278133
						CHANNELS 6 Xposition Yposition Zposition Xrotation Yrotation Zrotation
						End Site
						{
							OFFSET 0.000000 -0.068021 927.813477
						}
					}
				}
			}
		}
	}
}
MOTION
Frames: 3
Frame Time: 0.033333
0.000006 104.270477 1.554256 0.000010 0.000003 -0.000113 -0.000005 10.181587 0.131522 0.000001 -0.000003 0.000084 -0.000000 9.893967 -1.470711 0.000001 0.000000 -0.000000 -0.000000 9.220802 -1.370642 0.000000 -0.000000 -0.000000 0.000001 16.740433 -2.049030 0.000000 -0.000000 -0.000000 0.000000 9.617859 1.685014 0.000000 0.000000 0.000000 0.000002 22.037384 7.501101 0.000000 -0.000000 0.000000 -4.569968 11.014880 -2.160881 0.000008 0.000001 -0.000038 -10.592771 -0.524832 -2.231728 67.080831 71.427851 -50.963709 -27.841480 -0.000000 0.000585 43.975609 105.892364 -56.274523 -28.328836 0.000006 0.000027 -0.000322 -0.000045 0.000007 -2.464486 -1.574146 2.682209 52.966775 -122.663395 107.487650 -3.214747 -1.872914 1.924681 179.288668 -51.338881 232.907921 -2.654469 -1.528190 1.513067 201.023204 -48.420444 258.662952 -2.018823 -1.152000 1.108070 0.000003 0.000001 0.000004 -9.108362 -0.517557 2.260240 129.571653 10.719618 -22.632144 -3.700069 -0.000007 0.001299 -8.737181 14.394586 1.106672 -2.850022 -0.000102 -0.000415 -35.866290 5.267404 1.705556 -2.772156 -0.000016 -0.000017 0.000002 -0.000001 -0.000000 -9.532537 0.000271 0.000414 133.783885 3.969630 -9.580056 -3.699953 -0.000088 0.003728 338.699956 -12.243441 -2.334528 -2.949978 -0.000128 -0.001976 147.973262 -174.880013 178.527662 -2.946622 0.000015 -0.000165 -0.000001 -0.000000 -0.000001 -9.103622 -0.042749 -1.864694 138.148513 1.795286 -4.595254 -3.379113 -0.000126 -0.001051 154.490737 -147.918033 172.560112 -2.889620 -0.000127 0.000424 329.042833 -17.097755 -4.749792 -2.638803 -0.000015 0.000946 0.000001 0.000002 0.000001 -8.076632 -0.486344 -3.805804 144.549916 -4.157567 13.283829 -3.599799 -0.000202 -0.003718 149.110515 -142.483060 -190.910290 -2.099883 -0.000157 -0.005737 328.667856 -21.926497 -6.314958 -2.115780 -0.000054 -0.003681 0.000002 -0.000002 -0.000005 4.570446 11.014691 -2.160851 -0.000018 0.000010 -0.000021 10.592518 -0.524564 -2.232378 61.126928 -68.828691 44.053381 27.841757 -0.000058 -0.000122 47.529815 -102.780939 57.744113 28.328838 -0.000029 0.000013 0.000019 -0.000090 0.000001 2.466147 -1.576147 2.681869 82.104195 128.580401 -133.493547 3.217709 -1.872052 1.916538 194.828960 55.680190 111.320458 2.655943 -1.528831 1.514587 195.518810 52.089068 109.739632 2.020887 -1.154053 1.115152 0.000004 0.000003 0.000004 9.109469 -0.517777 2.259861 156.571705 -11.405191 51.372704 3.699997 -0.000030 -0.000287 357.125347 -19.210228 359.515476 2.850016 0.000012 0.000417 -18.529494 -4.960697 -0.809575 2.774872 -0.000030 -0.000034 -0.000002 0.000001 -0.000000 9.533504 0.000375 0.000058 161.995421 -5.131334 -328.467649 3.699994 -0.000020 -0.000223 353.385300 5.270691 0.305034 2.950012 -0.000015 0.000004 342.728019 1.387002 0.210260 2.952872 -0.000001 0.000067 0.000002 0.000004 0.000001 9.104632 -0.042678 -1.865034 173.530272 -1.675435 29.042617 3.149983 0.000002 0.000014 350.641503 29.001857 2.424955 2.949979 0.000005 0.000031 346.275592 13.646771 1.649644 2.644317 0.000031 0.000061 0.000002 0.000002 0.000003 8.077941 -0.486765 -3.806194 183.442939 4.479854 91.431733 3.599912 -0.000009 0.014713 343.612692 36.166548 5.189577 2.099980 -0.000013 0.007688 348.313174 25.897344 2.562602 2.125504 -0.000001 0.007514 -0.000001 0.000000 0.000000 -8.207786 -6.751667 -1.599560 -0.077001 -0.000003 0.000080 -0.000002 -44.370110 0.345938 0.153719 -0.000000 -0.000000 0.000000 -44.423679 -3.043532 -0.076700 0.000000 -0.000002 -0.000006 -8.728667 10.710559 -0.000009 -0.000000 -0.000000 -0.000001 -0.000679 9.278123 0.000000 -0.000000 -0.000000 8.207792 -6.751710 -1.599556 -0.074518 -0.000003 0.000081 -0.000002 -44.370014 0.346960 0.148822 0.000002 0.000000 -0.000001 -44.423664 -3.044403 -0.074314 0.000000 -0.000002 -0.000004 -8.728671 10.710558 0.000007 -0.000000 -0.000000 0.000000 -0.000680 9.278137 -0.000000 0.000000 -0.000001 
0.000006 104.270477 1.554256 0.000010 0.000003 -0.000113 -0.000005 10.181587 0.131522 0.000001 -0.000003 0.000084 -0.000000 9.893967 -1.470711 0.000001 0.000000 -0.000000 -0.000000 9.220802 -1.370642 0.000000 -0.000000 -0.000000 0.000001 16.740433 -2.049030 0.000000 -0.000000 -0.000000 0.000000 9.617859 1.685014 0.000000 0.000000 0.000000 0.000002 22.037384 7.501101 0.000000 -0.000000 0.000000 -4.569968 11.014880 -2.160881 0.000008 0.000001 -0.000038 -10.592771 -0.524821 -2.231735 67.142522 70.900813 -50.584203 -27.841488 0.000001 0.000588 44.594408 106.558334 -57.598507 -28.328829 0.000022 0.000031 -0.000319 -0.000045 0.000007 -2.464467 -1.574173 2.682204 51.296903 -123.277907 106.370135 -3.214730 -1.872908 1.924698 179.155835 -50.980505 232.965458 -2.654496 -1.528195 1.513057 202.239265 -48.232651 260.123247 -2.018830 -1.152003 1.108070 -0.000004 0.000000 0.000000 -9.108365 -0.517573 2.260258 129.322419 10.746658 -22.563667 -3.700068 -0.000012 0.001317 -9.437441 14.493045 1.203811 -2.850024 -0.000123 -0.000424 -36.351107 5.367686 1.763203 -2.772178 -0.000031 -0.000013 -0.000003 -0.000002 -0.000000 -9.532533 0.000253 0.000406 133.248931 3.943687 -9.397982 -3.699936 -0.000086 0.003719 337.913801 -12.306944 -2.435065 -2.949969 -0.000130 -0.001986 147.486870 -175.121556 178.574640 -2.946632 0.000001 -0.000162 -0.000000 -0.000001 0.000000 -9.103629 -0.042754 -1.864702 137.775407 1.837774 -4.660647 -3.379102 -0.000130 -0.001048 153.849533 -148.071070 172.405272 -2.889638 -0.000116 0.000396 329.794373 -17.109055 -4.631996 -2.638812 -0.000020 0.000944 -0.000000 0.000003 0.000001 -8.076627 -0.486351 -3.805807 144.506845 -3.757594 12.035277 -3.599807 -0.000191 -0.003713 148.018163 -142.696025 -191.242414 -2.099884 -0.000145 -0.005722 328.436777 -21.591589 -6.265151 -2.115770 -0.000042 -0.003675 -0.000002 -0.000001 -0.000002 4.570446 11.014691 -2.160851 -0.000018 0.000010 -0.000021 10.592520 -0.524569 -2.232378 61.038682 -68.123228 43.459189 27.841759 -0.000060 -0.000115 47.241755 -102.967212 57.574834 28.328831 -0.000029 0.000015 0.000021 -0.000089 0.000000 2.466150 -1.576160 2.681876 81.686139 128.742864 -133.251827 3.217708 -1.872058 1.916532 195.102100 55.520996 110.907963 2.655962 -1.528842 1.514587 198.553749 52.140763 106.354549 2.020890 -1.154057 1.115162 0.000005 0.000001 0.000006 9.109451 -0.517764 2.259864 157.225450 -11.542208 53.235987 3.700012 -0.000010 -0.000288 360.542573 -19.147035 360.093966 2.850007 0.000015 0.000419 -18.496863 -4.683091 -0.762839 2.774888 -0.000014 -0.000037 0.000002 0.000001 -0.000000 9.533523 0.000342 0.000057 162.413525 -5.590720 -325.019032 3.700011 -0.000028 -0.000215 355.210162 5.331946 0.223364 2.950023 -0.000018 -0.000000 342.516611 1.966764 0.302029 2.952858 -0.000029 0.000054 0.000004 -0.000000 0.000000 9.104638 -0.042678 -1.865042 172.440543 -2.179205 32.149639 3.149974 0.000019 0.000003 350.362039 28.941998 2.492315 2.949973 -0.000032 0.000031 344.897642 14.147465 1.884440 2.644316 0.000029 0.000054 0.000003 -0.000000 -0.000003 8.077912 -0.486757 -3.806190 182.597007 3.795535 94.664141 3.599939 -0.000006 0.014715 342.835089 35.766088 5.380411 2.099977 -0.000016 0.007703 347.435358 25.486451 2.717393 2.125496 -0.000031 0.007507 -0.000004 -0.000000 -0.000000 -8.207786 -6.751667 -1.599560 -0.077001 -0.000003 0.000080 -0.000002 -44.370110 0.345938 0.153719 -0.000000 -0.000000 0.000000 -44.423679 -3.043532 -0.076700 0.000000 -0.000002 -0.000006 -8.728667 10.710559 -0.000009 -0.000000 -0.000000 -0.000001 -0.000679 9.278123 0.000000 -0.000000 -0.000000 8.207792 -6.751710 -1.599556 -0.074518 -0.000003 0.000081 -0.000002 -44.370014 0.346960 0.148822 0.000002 0.000000 -0.000001 -44.423664 -3.044403 -0.074314 0.000000 -0.000002 -0.000004 -8.728671 10.710558 0.000007 -0.000000 -0.000000 0.000000 -0.000680 9.278137 -0.000000 0.000000 -0.000001 
0.000006 104.270477 1.554256 0.000010 0.000003 -0.000113 -0.000005 10.181587 0.131522 0.000001 -0.000003 0.000084 -0.000000 9.893967 -1.470711 0.000001 0.000000 -0.000000 -0.000000 9.220802 -1.370642 0.000000 -0.000000 -0.000000 0.000001 16.740433 -2.049030 0.000000 -0.000000 -0.000000 0.000000 9.617859 1.685014 0.000000 0.000000 0.000000 0.000002 22.037384 7.501101 0.000000 -0.000000 0.000000 -4.569968 11.014880 -2.160881 0.000008 0.000001 -0.000038 -10.592767 -0.524837 -2.231734 67.072171 71.073425 -50.666302 -27.841492 0.000023 0.000584 44.376419 105.886271 -56.748937 -28.328835 0.000021 0.000018 -0.000324 -0.000044 0.000007 -2.464472 -1.574190 2.682196 49.189373 -123.383816 104.559452 -3.214738 -1.872903 1.924686 180.549139 -51.085768 234.661312 -2.654485 -1.528201 1.513055 204.549713 -47.960967 262.800981 -2.018835 -1.152004 1.108063 -0.000005 -0.000002 0.000005 -9.108361 -0.517560 2.260239 129.052436 11.156080 -23.264225 -3.700059 -0.000005 0.001276 -9.675750 14.619275 1.245161 -2.850035 -0.000108 -0.000410 -37.945116 5.420238 1.864434 -2.772152 -0.000003 -0.000039 0.000000 -0.000003 -0.000004 -9.532547 0.000276 0.000400 132.935289 4.707771 -11.075773 -3.699948 -0.000100 0.003723 336.992955 -11.724387 -2.418703 -2.949973 -0.000150 -0.001969 145.684520 -174.875710 178.414800 -2.946622 -0.000016 -0.000163 0.000001 -0.000000 -0.000001 -9.103628 -0.042734 -1.864684 137.628230 2.399895 -6.089194 -3.379110 -0.000117 -0.001040 153.426457 -148.295510 172.335262 -2.889625 -0.000133 0.000412 328.444399 -17.587478 -4.987534 -2.638826 -0.000001 0.000934 -0.000000 0.000005 0.000004 -8.076627 -0.486374 -3.805820 144.574368 -3.491038 11.235703 -3.599788 -0.000168 -0.003727 147.382109 -143.244899 -191.296537 -2.099869 -0.000155 -0.005735 327.741327 -21.780722 -6.466430 -2.115796 -0.000042 -0.003687 -0.000004 0.000003 -0.000005 4.570446 11.014691 -2.160851 -0.000018 0.000010 -0.000021 10.592518 -0.524548 -2.232380 61.065682 -68.347463 43.646814 27.841763 -0.000066 -0.000113 47.645023 -102.656671 57.768360 28.328838 -0.000044 0.000025 0.000021 -0.000088 0.000001 2.466144 -1.576155 2.681888 82.407919 129.343825 -134.003968 3.217728 -1.872066 1.916528 195.137767 55.665731 110.963731 2.655945 -1.528826 1.514618 197.630376 52.569009 107.678431 2.020891 -1.154082 1.115149 0.000004 -0.000000 0.000003 9.109452 -0.517770 2.259863 156.783659 -10.828477 49.477323 3.700003 -0.000014 -0.000294 359.920233 -17.789221 359.989710 2.850016 0.000003 0.000421 -19.383826 -4.307363 -0.735838 2.774871 -0.000030 -0.000029 0.000002 0.000000 0.000000 9.533504 0.000353 0.000056 161.797428 -4.814526 -330.644595 3.699993 -0.000045 -0.000219 354.316036 6.931156 0.344751 2.950016 -0.000014 0.000013 341.468286 2.384337 0.388593 2.952870 -0.000019 0.000067 0.000001 -0.000003 0.000001 9.104624 -0.042689 -1.865038 172.056864 -1.938837 27.421014 3.149986 0.000005 0.000014 349.244538 29.289494 2.817736 2.949979 -0.000009 0.000035 344.433517 13.884543 1.906594 2.644328 0.000015 0.000044 -0.000000 0.000001 -0.000001 8.077906 -0.486772 -3.806186 182.408275 3.639665 95.549743 3.599941 0.000012 0.014715 342.953934 35.655712 5.323921 2.099996 -0.000010 0.007695 347.601359 25.223889 2.651003 2.125497 -0.000028 0.007529 0.000002 -0.000000 0.000003 -8.207786 -6.751667 -1.599560 -0.077001 -0.000003 0.000080 -0.000002 -44.370110 0.345938 0.153719 -0.000000 -0.000000 0.000000 -44.423679 -3.043532 -0.076700 0.000000 -0.000002 -0.000006 -8.728667 10.710559 -0.000009 -0.000000 -0.000000 -0.000001 -0.000679 9.278123 0.000000 -0.000000 -0.000000 8.207792 -6.751710 -1.599556 -0.074518 -0.000003 0.000081 -0.000002 -44.370014 0.346960 0.148822 0.000002 0.000000 -0.000001 -44.423664 -3.044403 -0.074314 0.000000 -0.000002 -0.000004 -8.728671 10.710558 0.000007 -0.000000 -0.000000 0.000000 -0.000680 9.278137 -0.000000 0.000000 -0.000001 
